<svg width="600" height="600" viewBox="0 0 600 600" fill="none" xmlns="http://www.w3.org/2000/svg">
<mask id="mask0_132_11" style="mask-type:luminance" maskUnits="userSpaceOnUse" x="0" y="0" width="600" height="600">
<path d="M300 600C465.685 600 600 465.685 600 300C600 134.315 465.685 0 300 0C134.315 0 0 134.315 0 300C0 465.685 134.315 600 300 600Z" fill="white"/>
</mask>
<g mask="url(#mask0_132_11)">
<path d="M750 0H-150V600H750V0Z" fill="#006C35"/>
<path d="M237.939 141.71C237.166 141.791 236.428 142.074 235.799 142.53C233.599 144 229.259 148.53 229.119 153.75C228.989 156.69 228.429 156.68 230.359 158.55C231.749 160.55 233.139 160.35 235.949 158.88C236.648 158.449 237.249 157.877 237.714 157.2C238.179 156.523 238.497 155.757 238.649 154.95C239.319 151.61 235.129 156.53 234.599 152.81C233.659 149.36 236.329 147.94 238.869 144.6C238.929 143.02 238.959 141.74 237.939 141.71ZM278.809 141.93C278.029 142.04 277.069 143.04 275.739 145.46C274.739 147.99 270.659 151.82 273.639 159.71C276.059 164.71 277.059 172.85 275.959 181.91C274.708 184.027 273.279 186.034 271.689 187.91C268.579 191.24 265.219 190.39 262.689 189.14C260.279 187.52 258.389 186.69 257.289 181.53C257.489 173.31 257.959 159.86 256.459 157.01C254.249 152.58 250.599 154.17 249.039 155.51C241.539 162.36 237.839 173.93 235.579 183.14C233.499 189.85 231.279 187.91 229.729 185.21C225.939 181.66 225.669 153.91 221.099 158.47C213.779 179.4 225.299 202.32 233.289 200.09C239.049 202.48 242.699 191.51 245.059 179.51C246.679 176.14 247.909 175.75 248.739 177.51C248.519 193.51 249.879 197.04 253.989 201.89C263.139 208.95 270.719 202.78 271.309 202.19L278.439 195.06C280.019 193.39 282.119 193.29 284.359 194.76C286.539 196.76 286.259 200.15 290.929 202.52C294.849 204.09 303.229 202.9 305.179 199.52C307.789 195.04 308.429 193.52 309.639 191.8C311.499 189.31 314.699 190.41 314.699 191.2C314.399 192.58 312.529 193.95 313.799 196.45C316.019 198.11 316.539 197.04 317.849 196.67C322.499 194.45 325.989 184.37 325.989 184.37C326.189 180.61 324.049 180.9 322.689 181.67C320.909 182.76 320.799 183.13 319.009 184.22C316.739 184.56 312.339 186.06 310.159 182.69C307.939 178.63 307.929 172.98 306.229 168.89C306.229 168.59 303.229 162.45 305.999 162.06C307.389 162.32 310.369 163.06 310.839 160.6C312.289 158.17 307.699 151.28 304.579 147.81C301.859 144.81 298.119 144.47 294.489 147.51C291.949 149.85 292.319 152.46 291.829 154.94C291.406 156.694 291.399 158.523 291.809 160.28C292.219 162.037 293.034 163.674 294.189 165.06C296.719 170.06 301.329 176.48 299.809 185.54C299.809 185.54 297.129 189.85 292.429 189.29C290.429 188.86 287.259 188.01 285.559 175.45C284.279 165.94 285.879 152.62 281.849 146.39C280.939 144.03 280.159 141.75 278.849 141.92L278.809 141.93ZM265.869 142.93C264.649 143.04 263.299 144.46 262.199 147.21C261.249 149.3 260.099 160.21 260.289 160.21C259.529 163.46 263.679 164.84 265.569 160.66C268.409 153 268.419 149.73 268.569 146.48C268.129 144.01 267.049 142.82 265.829 142.92L265.869 142.93ZM313.649 143.79C312.389 143.91 311.399 144.64 311.019 146.49C310.548 149.941 310.715 153.449 311.509 156.84C312.069 159.26 315.589 163.31 317.319 165.66C325.599 176.78 333.559 187.96 341.249 199.52C342.459 208.11 343.339 216.52 343.909 224.87C345.271 245.006 345.435 265.205 344.399 285.36C347.829 285.49 353.339 279.81 355.269 271.48C356.529 259.96 354.829 236.48 354.709 229.67C354.629 226.85 354.459 223.48 354.259 219.96C363.209 234.57 371.879 250.06 380.399 267.06C383.499 265.58 382.819 248.06 380.999 245.64C374.179 230.97 364.759 216.49 361.759 210.92C360.679 208.92 356.989 203.29 352.609 196.82C351.809 187.58 350.929 179.76 350.359 177.39C348.959 167.63 354.359 178.49 353.619 172.82C351.859 163.07 346.479 156.44 340.119 147.5C338.069 144.6 338.119 144.01 334.949 148.22C333.361 151.731 332.904 155.648 333.639 159.43C332.799 158.22 331.769 156.79 330.299 155C324.809 150.29 324.469 150 319.909 146.19C318.469 145.19 315.739 143.6 313.649 143.79ZM455.249 145.26C454.639 145.16 453.969 145.46 453.249 146.57C452.326 147.368 451.584 148.355 451.075 149.464C450.566 150.574 450.302 151.779 450.299 153C450.649 158.15 451.559 163.41 451.909 168.56C452.029 169.25 452.159 169.94 452.289 170.62C451.729 169.92 451.289 169.37 450.969 169.09C440.969 158.55 455.579 167.36 449.059 159.22C443.549 153.17 441.929 151.22 437.209 147.6C434.839 146.07 433.409 143.15 432.639 148.12C432.23 152.484 432.116 156.871 432.299 161.25C432.299 163.3 434.399 167.16 436.239 169.43C442.929 177.65 449.759 186.43 456.639 195.53C458.079 214.14 458.469 231.21 459.939 249.86C459.729 257.86 457.269 268.43 454.939 269.44C454.939 269.44 451.389 271.44 449.009 269.21C447.289 268.52 440.389 257.7 440.389 257.7C436.859 254.46 434.499 255.39 431.989 257.7C425.059 264.39 421.919 276.93 417.209 285.56C415.999 287.49 412.579 289.13 408.779 285.41C399.119 272.22 404.779 253.41 403.559 258.26C394.959 267.96 398.769 284.02 400.709 287.47C403.549 293.15 405.839 296.78 411.359 299.59C416.359 303.29 420.309 300.98 422.459 298.39C427.519 293.15 427.589 279.74 429.959 277.09C431.629 272.22 435.799 273.09 437.839 275.21C439.683 277.853 442.158 279.995 445.039 281.44C449.759 285.6 455.389 286.36 460.939 282.56C464.729 280.43 467.189 277.67 469.409 272.21C471.799 265.84 470.619 232.44 470.089 213.86C473.649 218.86 477.169 224.01 480.659 229.2C482.242 245.081 482.823 261.046 482.399 277C482.039 280.07 493.089 267.86 493.009 262.08C492.959 257.02 493.009 252.43 493.009 248.17C498.369 256.72 503.559 265.42 508.459 274.23C511.459 272.62 510.459 255.41 508.539 253.04C503.399 244.43 496.829 235.12 491.739 227.92C490.739 218.83 489.359 208.1 488.739 204.82C487.739 199.69 486.789 192 485.319 185.92C484.919 183.54 483.709 175.92 484.089 175.23C484.689 173.53 486.949 175.28 488.089 173.32C489.759 171.5 482.309 152.2 478.529 146.69C477.169 144.22 474.709 145.08 471.669 149.09C468.839 151.73 469.879 157.76 470.949 163.49C473.749 178.1 476.249 192.98 478.229 207.82C474.569 202.37 470.099 195.82 465.699 189.44C465.589 188.83 465.139 186.58 465.139 186.55C465.139 186.29 464.529 174.55 464.019 171.82C463.919 170.69 463.659 170.36 464.839 170.5C465.457 171.133 466.19 171.643 466.999 172C468.269 172.23 469.379 170.08 468.619 168.1C464.689 160.86 460.769 153.59 456.839 146.35C456.416 145.861 455.855 145.512 455.229 145.35L455.249 145.26ZM89.8091 145.63C87.6391 145.57 85.2391 146.92 86.1691 149.53C85.6291 150.96 90.4291 155.77 91.2691 158.42C92.0291 160.3 90.5191 166.37 92.0991 166.93C93.6791 167.49 95.5391 162.73 96.2991 158.27C96.7191 155.82 96.3991 147.46 90.7091 145.74C90.4128 145.678 90.1117 145.641 89.8091 145.63ZM506.099 145.68C505.609 145.73 504.999 146.53 504.099 148.49C501.869 152.14 501.099 158.67 501.999 164.43C507.359 200.67 511.339 235.77 512.159 267.89C511.868 270.802 511.196 273.663 510.159 276.4C506.989 280.46 503.509 285.54 500.219 287.99C496.929 290.44 489.939 292.78 487.659 294.59C480.399 298.78 480.369 303.59 486.229 303.78C496.339 302.61 508.299 301.78 516.529 289.34C518.739 285.86 521.329 276.41 521.439 270.63C522.209 236.73 521.009 203.63 515.929 179.09C515.609 176.71 514.549 171.22 514.929 170.5C515.579 168.83 518.929 170.67 520.059 168.74C521.789 166.98 511.509 153.82 507.909 148.19C507.199 146.78 506.749 145.62 506.109 145.68H506.099ZM400.099 146.24C399.679 146.31 399.099 146.95 397.919 148.45C395.099 157.68 394.109 165.22 395.189 170.95C402.439 208.79 409.869 243.27 408.689 279.29C412.129 279.29 416.099 271.43 417.799 263.62C418.729 252.86 417.179 246.31 416.899 239.99C416.619 233.67 409.739 182.37 408.349 177.59C406.669 168.59 415.039 176.4 414.119 171.14C411.229 164.51 404.009 154.85 401.749 149.09C400.899 147.55 400.799 146.09 400.099 146.24ZM142.099 146.95C141.59 147.064 141.125 147.324 140.759 147.696C140.394 148.069 140.144 148.539 140.039 149.05C139.849 149.85 140.389 151.17 139.669 151.57C139.249 151.98 137.669 151.7 137.749 149.5C137.659 148.811 137.375 148.163 136.929 147.63C136.609 147.415 136.222 147.322 135.839 147.37C135.149 147.37 135.169 147.58 134.789 148.15C134.574 148.742 134.446 149.361 134.409 149.99C134.319 150.77 134.009 151.04 133.409 151.15C132.809 151.26 132.919 151.22 132.409 150.89C132.099 150.55 131.739 150.42 131.739 149.84C131.731 149.176 131.616 148.518 131.399 147.89C131.087 147.536 130.664 147.3 130.199 147.22C127.499 147.22 127.309 150.32 127.459 151.49C127.259 151.71 127.159 157.2 130.839 158.73C135.769 161.08 145.029 160.09 144.639 152.13C144.639 151.42 144.479 149.06 144.409 148.42C144.26 147.939 143.944 147.528 143.519 147.258C143.094 146.989 142.587 146.88 142.089 146.95H142.099ZM208.329 147.03C206.758 147.119 205.224 147.542 203.829 148.27C200.559 151.4 199.829 156.42 202.369 159.55C204.869 160.74 207.369 163.26 205.699 164.65C198.609 172.23 180.159 184.88 179.229 187.19V187.27V187.38V187.45C180.169 188.09 191.719 188.07 192.999 187.45C196.999 185.99 215.799 164.45 215.799 164.45C214.799 163.62 213.929 163 212.949 162.16C211.969 161.32 212.009 160.37 212.949 159.46C217.619 156.75 216.139 150.78 213.699 148.06C211.942 147.243 210.015 146.859 208.079 146.94L208.329 147.03ZM381.429 147.1C380.929 147.1 380.329 147.92 379.429 149.88C377.209 153.52 375.699 159.88 375.869 165.82C380.689 199.19 382.169 228.4 385.319 261.82C385.579 265.05 385.109 269.74 382.959 271.61C375.019 279.89 363.579 290.12 351.119 294.82C349.779 296.32 354.449 302.74 360.499 302.73C370.599 301.56 379.499 295.89 387.719 280.94C389.929 277.46 393.799 270 393.909 264.22C394.679 230.32 392.199 203.97 387.119 179.47C386.799 177.08 387.019 174.26 387.419 173.54C388.079 172.76 390.299 173.54 391.469 171.63C393.199 169.87 386.859 155.25 383.259 149.63C382.539 148.22 382.099 147.09 381.459 147.15L381.429 147.1ZM113.269 148.1C112.517 148.243 111.814 148.578 111.229 149.072C110.644 149.566 110.196 150.202 109.929 150.92C109.618 156.131 109.731 161.358 110.269 166.55C112.699 175.21 113.469 182.82 114.649 191.68C114.979 203.55 107.799 196.81 108.129 190.93C109.789 183.29 109.339 171.25 107.869 168.2C106.699 165.2 105.339 164.4 102.499 164.9C100.249 164.77 94.4191 171.12 92.7891 181.63C91.9429 184.992 91.2753 188.397 90.7891 191.83C89.9891 197.26 86.3991 201.1 83.8891 191.08C81.7191 183.79 80.3891 165.84 76.7691 170.08C75.7691 184.08 74.4891 208.76 86.3991 211.3C100.809 212.68 92.8491 186.94 98.0691 182.3C99.0691 179.99 100.879 179.95 101.069 182.86V204.73C100.939 211.83 105.609 213.94 109.239 215.41C113.019 215.12 115.519 215.22 117.009 218.9C117.599 231.5 118.219 244.14 118.809 256.74C118.809 256.74 127.539 259.25 127.959 235.47C128.369 221.47 125.179 209.8 127.059 207.09C127.119 204.42 130.539 204.29 132.909 205.59C136.669 208.24 138.339 211.51 144.189 210.2C153.099 207.75 158.459 203.42 158.589 196.59C158.069 190.09 157.319 183.59 154.509 177.09C154.899 175.91 152.799 172.83 153.189 171.65C154.789 174.16 157.189 173.95 157.769 171.65C156.249 166.65 153.889 161.87 150.079 159.8C146.929 157.02 142.319 157.61 140.629 163.4C139.849 170.07 143.049 177.98 147.909 184.4C148.909 186.92 150.379 191.12 149.739 194.9C147.159 196.37 144.599 195.76 142.429 193.47C142.429 193.47 135.339 188.17 135.339 186.98C137.219 174.98 135.749 173.56 134.709 170.22C133.979 165.61 131.789 164.15 130.019 161C128.249 159.12 125.839 159.12 124.689 161C121.559 166.43 123.029 178.09 125.289 183.31C126.929 188.11 129.439 191.11 128.289 191.11C127.289 193.82 125.289 193.19 123.819 190.06C121.739 183.58 121.309 173.93 121.309 169.58C120.679 164.19 119.989 152.67 116.439 149.75C116.115 149.216 115.649 148.783 115.092 148.498C114.536 148.214 113.912 148.09 113.289 148.14L113.269 148.1ZM163.849 148.18C163.139 148.27 162.349 148.68 161.419 148.89C158.349 149.89 155.489 152.51 156.419 157.67C160.039 179.67 162.419 196.45 166.019 218.45C166.579 221.03 164.419 224.45 161.629 224.08C156.899 220.88 155.719 214.39 147.629 214.67C141.779 214.74 135.109 221.1 134.279 227.23C133.279 232.1 132.949 237.38 134.279 241.63C138.389 246.57 143.279 246.05 147.629 244.93C151.179 243.47 154.099 239.93 155.349 240.8C156.119 242.16 155.279 253.6 138.619 262.44C128.389 267.03 120.239 268.13 115.859 259.78C113.139 254.56 116.059 234.67 109.369 239.26C89.5991 290.26 155.689 297.34 163.069 241.36C163.549 239.78 165.009 238.2 166.069 238.59C166.529 238.78 166.939 239.39 167.069 240.59C165.539 291.27 115.939 294.74 107.519 278.8C105.429 275.04 104.799 266.68 104.589 261.66C104.209 258.66 103.449 256.88 102.589 256.19C100.589 254.68 97.8791 258.62 97.2991 265.45C96.4591 270.95 96.6991 272.45 96.6991 277.75C99.3491 317.75 163.169 300.58 173.539 267.51C178.669 250.42 173.429 237.51 175.149 235.94H175.219H175.299H175.369C175.445 235.93 175.523 235.93 175.599 235.94C181.929 242.76 190.829 236.81 192.769 234.44C193.006 234.092 193.317 233.8 193.68 233.586C194.043 233.372 194.448 233.241 194.868 233.201C195.287 233.162 195.71 233.216 196.106 233.359C196.502 233.503 196.862 233.732 197.159 234.03C202.099 237.58 210.769 235.91 212.569 229.64C213.721 223.364 214.436 217.015 214.709 210.64C211.489 211.64 208.889 212.38 207.849 213.49C207.603 213.737 207.433 214.049 207.359 214.39C207.079 216.2 206.819 218.01 206.539 219.82C206.51 219.967 206.46 220.108 206.389 220.24C206.232 220.468 206.028 220.659 205.789 220.8C204.649 221.42 202.659 221.06 202.559 219.41C201.029 212.41 194.729 211.54 190.899 222.34C188.319 224.42 183.629 224.83 183.139 221.7C183.759 214.46 180.849 213.49 174.999 216.9C173.119 202.56 171.259 188.9 169.369 174.52C171.809 174.45 174.049 176.22 176.269 173.44C173.859 165.94 168.759 150.68 165.889 149.25H165.809C165.685 149.101 165.548 148.964 165.399 148.84C165.399 148.84 165.259 148.73 165.209 148.69C165.149 148.647 165.086 148.611 165.019 148.58C164.903 148.513 164.779 148.463 164.649 148.43C164.394 148.349 164.125 148.321 163.859 148.35L163.849 148.18ZM361.059 148.29C358.529 148.22 355.729 149.81 356.819 152.98C356.189 154.71 362.259 160.57 363.239 163.78C364.999 168.71 361.889 173.41 363.719 174.09C365.549 174.77 367.719 169 368.639 163.59C369.639 159.22 366.529 150.25 362.109 148.4C361.764 148.328 361.412 148.291 361.059 148.29ZM207.419 153.69C208.579 153.57 209.969 154.63 210.649 156.13C211.329 157.63 211.009 159.25 209.819 159.54C208.629 159.83 207.099 158.78 206.369 157.18C205.639 155.58 206.009 154.02 207.199 153.73L207.419 153.69ZM492.419 161.08C491.782 161.019 491.14 161.122 490.554 161.381C489.969 161.639 489.46 162.044 489.076 162.557C488.692 163.069 488.447 163.671 488.363 164.306C488.28 164.94 488.361 165.586 488.599 166.18C488.019 168.05 493.519 174.41 494.409 177.88C495.209 180.35 493.189 188.32 494.859 189.05C496.529 189.78 498.559 183.55 499.359 177.69C499.809 174.49 497.429 163.23 493.359 161.23C493.033 161.138 492.697 161.087 492.359 161.08H492.419ZM334.839 165C335.049 165.94 335.259 166.89 335.399 167.85C335.879 169.93 336.279 171.99 336.719 174.04C334.899 171.53 333.389 169.51 332.719 168.79C328.599 163.89 332.819 165.57 334.819 165H334.839ZM371.139 182.85C370.627 182.972 370.16 183.239 369.795 183.618C369.43 183.997 369.182 184.473 369.079 184.99C368.879 185.78 369.459 187.06 368.739 187.46C368.329 187.88 366.739 187.64 366.789 185.46C366.697 184.757 366.414 184.092 365.969 183.54C365.646 183.331 365.262 183.239 364.879 183.28C364.189 183.28 364.209 183.49 363.829 184.07C363.618 184.663 363.491 185.282 363.449 185.91C363.369 186.69 363.089 186.91 362.519 187.07C361.949 187.23 361.989 187.14 361.519 186.81C361.209 186.47 360.839 186.33 360.839 185.76C360.837 185.095 360.722 184.436 360.499 183.81C360.186 183.463 359.762 183.237 359.299 183.17C356.609 183.17 356.449 186.24 356.599 187.41C356.399 187.63 356.269 193.15 359.939 194.68C364.879 197.04 374.169 196 373.779 188.04C373.779 187.34 373.589 184.98 373.519 184.33C373.366 183.851 373.048 183.441 372.621 183.174C372.195 182.906 371.687 182.799 371.189 182.87L371.139 182.85ZM205.399 184.51C204.568 184.499 203.753 184.747 203.069 185.22C198.709 187.58 197.069 194.59 199.739 198.68C202.269 202.29 206.289 200.97 206.819 200.97C211.099 201.51 213.649 192.97 213.649 192.97C213.649 192.97 213.779 190.56 208.649 195.1C206.509 195.51 206.219 194.73 205.649 193.53C205.138 191.28 205.373 188.925 206.319 186.82C206.789 185.48 206.319 184.63 205.319 184.53L205.399 184.51ZM439.699 185.6C438.334 185.555 437.001 186.016 435.956 186.895C434.911 187.773 434.228 189.008 434.039 190.36C434.039 192.31 434.919 193.36 434.749 195.16C434.499 196.16 433.449 196.84 430.959 195.65C431.349 195.29 429.349 192.46 429.349 192.46C427.409 191.28 424.809 192.52 423.119 193.62C422.515 194.771 422.153 196.035 422.057 197.332C421.96 198.629 422.131 199.932 422.559 201.16C425.349 206.31 434.909 215.1 439.469 215.16C439.559 210.52 440.009 204.34 440.259 200.5C440.369 199.05 440.709 197.45 442.099 197.09C443.489 196.73 445.899 198.49 445.919 196.98C445.669 193.98 445.079 189.66 443.409 187.6C442.989 187.001 442.434 186.509 441.79 186.162C441.146 185.815 440.43 185.622 439.699 185.6ZM245.759 201.76C245.692 201.791 245.629 201.827 245.569 201.87L245.459 201.95C244.726 202.697 243.948 203.398 243.129 204.05C240.979 206.49 240.599 208.19 240.729 213.05C240.849 213.57 244.809 224.56 248.159 232.29C250.409 240.29 252.499 249.52 250.969 258.2C245.679 269.69 235.049 279.98 224.789 285.58C219.569 287.25 215.049 286.68 213.839 285.58C212.844 284.897 212.051 283.96 211.542 282.866C211.034 281.771 210.829 280.561 210.949 279.36C219.599 273.36 229.489 268.45 237.229 252.18C239.519 245.96 240.229 242.18 237.949 232.6C237.059 229.02 235.949 226.07 233.519 223.53C234.989 222.83 238.809 225.64 239.409 223.87C238.499 219.28 235.409 213.11 231.869 209.95C228.779 207.15 225.429 206.83 222.609 209.39C219.419 211.16 218.749 217.52 220.279 223.08C221.979 227.27 226.569 228 229.839 236.43C229.909 236.96 230.969 242.72 229.319 245.05C227.979 249.22 210.809 262.76 209.589 263.58L209.479 263.65H209.399C209.394 263.624 209.394 263.596 209.399 263.57C209.349 263.24 209.399 262.38 209.399 260.99C209.289 258.45 210.339 252.71 210.259 251.72C204.579 255.39 202.699 266.62 201.669 269.95C187.299 279.88 170.979 287.26 161.579 297.32C156.689 304.97 195.309 288.54 199.789 286.56L199.909 286.67C200.759 287.61 200.829 290.88 203.389 293.84C207.389 299.27 215.939 302.62 224.239 300.55C238.169 295.55 246.239 286.03 254.359 275.5C255.519 273.8 257.359 272.5 259.039 273.77C264.659 286.34 280.839 295.28 301.759 296.2C306.599 290.31 304.279 287.42 302.319 286.2C301.709 285.79 291.909 281.97 290.389 278.2C289.439 274.66 291.759 271.52 296.389 269.2C309.819 267.58 323.029 265.77 335.799 261.67C335.929 257.37 338.459 250.95 340.149 248.17C340.662 247.187 341.429 246.358 342.369 245.77V245.7C342.391 245.574 342.391 245.446 342.369 245.32L340.199 244.05L297.329 243.86C296.915 243.718 296.524 243.515 296.169 243.26L296.099 243.19C296.102 243.167 296.102 243.143 296.099 243.12V242.82V242.74C296.479 242.371 296.942 242.1 297.449 241.95C307.689 240.56 325.869 237.58 327.079 220.09C326.889 210.98 323.179 205.02 311.999 203.37C303.789 204 297.939 211.94 298.879 220.69C298.489 223.05 299.679 227.69 297.269 228.19C281.509 229.63 264.319 239.5 263.739 246.57H263.659H263.589H263.469H262.999H262.849C261.849 246.29 260.499 244.57 260.709 242.22C260.034 229.141 256.327 216.399 249.879 205C247.659 202.77 246.689 201.87 246.059 201.77H245.759V201.76ZM286.759 208.21C286.249 208.322 285.782 208.58 285.417 208.953C285.051 209.326 284.801 209.798 284.699 210.31C284.499 211.1 285.079 212.42 284.359 212.82C283.949 213.24 282.359 213 282.409 210.82C282.317 210.117 282.034 209.452 281.589 208.9C281.281 208.692 280.909 208.6 280.539 208.64C279.849 208.64 279.819 208.85 279.449 209.43C279.238 210.023 279.111 210.642 279.069 211.27C278.989 212.05 278.709 212.27 278.139 212.43C277.569 212.59 277.639 212.5 277.139 212.17C276.829 211.83 276.429 211.69 276.429 211.12C276.434 210.458 276.333 209.8 276.129 209.17C275.798 208.825 275.362 208.599 274.889 208.53C272.199 208.53 272.039 211.6 272.189 212.77C271.989 212.99 271.849 218.52 275.529 220.04C280.469 222.4 292.229 221.04 289.369 213.4C289.369 212.7 289.179 210.34 289.109 209.69C288.956 209.211 288.638 208.801 288.211 208.534C287.785 208.266 287.277 208.159 286.779 208.23L286.759 208.21ZM452.339 215C452.205 214.961 452.063 214.961 451.929 215C451.929 215 429.059 231.27 428.489 231.84C426.229 233.84 427.359 240.95 428.489 240.13C430.129 240.76 453.159 225.13 452.719 223.33C453.719 223.39 454.209 215.33 452.339 214.97V215ZM308.389 217.41C309.568 217.367 310.732 217.681 311.729 218.31C313.439 219.31 314.489 220.79 314.349 221.87C314.354 221.906 314.354 221.943 314.349 221.98C314.349 221.98 314.289 222.07 314.279 222.1V222.21V222.28C314.283 222.306 314.283 222.333 314.279 222.36C314.213 222.456 314.136 222.543 314.049 222.62C313.229 223.39 311.339 223.28 309.549 222.25C307.759 221.22 306.819 219.77 306.929 218.68C306.929 218.68 306.929 218.6 306.929 218.57C306.962 218.441 307.013 218.316 307.079 218.2C307.101 218.148 307.128 218.098 307.159 218.05C307.214 217.982 307.274 217.918 307.339 217.86C307.658 217.627 308.035 217.485 308.429 217.45L308.389 217.41ZM108.099 221.53C96.2491 221.75 78.8991 237.07 78.4391 245.53C90.9391 239.53 103.229 233.75 115.939 227.53C113.939 224.47 115.809 221.71 108.099 221.53ZM146.499 226.86C147.167 226.87 147.815 227.089 148.353 227.485C148.89 227.881 149.291 228.435 149.499 229.07C149.736 229.711 149.798 230.404 149.678 231.077C149.559 231.75 149.262 232.379 148.819 232.9V232.98C148.319 233.62 146.569 233.35 145.329 233.35C144.714 233.408 144.095 233.296 143.54 233.026C142.984 232.756 142.514 232.339 142.179 231.82C141.749 230.46 143.059 229.12 143.639 228.1C143.711 227.988 143.799 227.887 143.899 227.8C144.481 227.302 145.198 226.988 145.959 226.9C146.122 226.89 146.286 226.89 146.449 226.9L146.499 226.86ZM447.889 231.58C445.779 231.83 443.779 233.83 444.699 237.01C444.129 238.88 447.559 245.43 448.449 248.9C449.259 251.37 447.449 258.36 449.089 259.1C450.729 259.84 454.669 254.95 454.529 248.71C454.969 245.51 453.389 233.71 449.349 231.71C448.875 231.575 448.379 231.534 447.889 231.59V231.58ZM191.889 243.13C190.029 243.26 188.369 244.25 189.119 246.88C188.999 248.78 194.379 251.09 194.699 255.5C195.469 257.32 193.549 263.13 195.149 263.68C196.749 264.23 198.659 259.68 199.429 255.35C199.849 252.99 197.579 244.75 193.729 243.28C193.127 243.14 192.506 243.089 191.889 243.13ZM268.499 253.59H268.999C273.779 254.89 280.819 255.02 286.929 255.65C291.929 255.97 294.359 259.86 289.699 261.5C285.039 263.14 280.699 264.3 280.699 270.95C281.309 274.24 281.179 275.95 280.699 276.76L280.549 276.95H280.469L280.249 277.06H280.019C278.929 277.22 277.339 276.18 276.159 275.56C273.319 273.56 265.369 268.56 264.229 258.01C264.069 255.62 265.859 253.56 268.729 253.36L268.499 253.59ZM81.4091 261.73C81.1091 261.73 80.5091 262.63 79.7191 263.64C72.7191 274.87 72.0391 291.64 75.9291 296.64C76.8995 297.763 78.1551 298.602 79.5632 299.071C80.9713 299.539 82.4797 299.618 83.9291 299.3C88.3591 297.38 90.2991 288.41 89.2491 285.13C87.7791 282.81 86.5991 282.45 85.1291 284.41C82.0091 290.74 80.7091 286.41 80.4391 282.88C80.0849 276.938 80.3867 270.976 81.3391 265.1C81.7291 262.59 81.7091 261.72 81.4191 261.73H81.4091ZM321.599 276.47C321.029 276.44 320.461 276.557 319.949 276.81C319.839 276.81 314.899 280.15 313.309 282.47C312.309 283.21 312.449 283.85 312.749 285.14C313.499 286.87 314.829 286.33 316.349 285.51C318.349 285.24 319.349 286.51 319.159 288.96C318.229 291.96 319.569 293.08 319.569 293.27C320.099 293.832 320.808 294.192 321.574 294.288C322.34 294.385 323.116 294.212 323.769 293.8C328.559 291.97 331.539 290.19 338.249 288.74C340.009 288.74 339.899 283.99 337.119 283.82C333.489 284.01 330.119 284.19 326.509 287.05C324.279 287.56 323.889 286.2 323.399 284.99C322.829 281.99 324.669 279.83 324.299 277.56C323.518 276.953 322.583 276.575 321.599 276.47ZM475.389 282.21C474.499 282.21 473.559 282.36 472.199 282.47C470.729 282.79 470.199 283.47 469.949 285.21C470.059 287.91 471.709 287.78 473.399 288.85C474.399 290.1 475.019 291.22 473.329 293.27C471.719 294.74 470.579 295.55 468.979 297.02C468.219 298.31 467.749 300.3 470.059 300.92C474.339 302.12 484.239 295.69 484.239 295.56C484.734 295.144 485.089 294.587 485.257 293.963C485.425 293.339 485.398 292.678 485.179 292.07C484.239 291 482.129 291.65 480.709 291.47C480.039 291.47 477.819 291.15 478.879 289.19C479.643 288.133 480.25 286.971 480.679 285.74C481.339 284.27 480.759 283.28 478.349 282.47C477.362 282.27 476.356 282.183 475.349 282.21H475.389ZM411.139 412.29C404.029 414.11 404.249 421.5 408.819 424.74C333.709 424.74 218.439 423.46 193.719 423.46C179.889 423.46 136.129 421.81 135.289 421.81C144.679 435.54 158.289 438.33 176.059 438.61C209.419 438.61 363.999 438.2 407.989 438.2C404.859 443.75 408.279 452.69 410.729 454.33L410.919 454.44C411.016 454.485 411.116 454.522 411.219 454.55C411.256 454.555 411.293 454.555 411.329 454.55C414.239 455.24 415.519 453.13 416.499 451.55C421.229 451.96 447.819 452.35 450.249 451.55C451.899 453.98 453.529 456.26 456.659 455.87C462.149 454.69 466.459 454.09 466.599 442.97C466.599 442.97 466.039 423.97 453.599 425.19C450.649 425.64 442.389 426.47 442.389 426.47C432.819 425.33 425.799 425.21 415.049 424.82C416.049 423.56 417.789 418.45 415.649 416.6C414.914 416.065 413.999 415.839 413.099 415.97H412.999H412.889C412.816 415.917 412.752 415.853 412.699 415.78L412.619 415.71C412.079 414.92 411.779 412.98 411.419 412.48H411.339H411.269L411.139 412.29ZM416.239 439.4C427.239 439.94 437.489 439.51 448.449 440.04C450.189 441.52 449.319 444.9 448.189 445.52L447.999 445.59C447.949 445.595 447.899 445.595 447.849 445.59C447.799 445.595 447.749 445.595 447.699 445.59C444.139 445.5 442.079 445.42 438.509 445.33C438.512 445.151 438.488 444.972 438.439 444.8C437.589 442.3 431.439 442.47 430.039 444.43L429.959 444.54L429.889 444.69L429.809 444.88C429.804 444.967 429.804 445.053 429.809 445.14C429.799 445.24 429.799 445.34 429.809 445.44C424.999 446.02 420.669 445.28 415.859 445.1C414.449 443.35 414.609 440.17 416.269 439.4H416.239Z" fill="white"/>
</g>
</svg>
