<svg width="80" height="62" viewBox="0 0 80 62" fill="none" xmlns="http://www.w3.org/2000/svg">
    <path
        d="M55.5977 61.964C52.8407 61.964 50.5977 59.721 50.5977 56.964V35.908C50.5977 33.151 52.8407 30.908 55.5977 30.908C58.3547 30.908 60.5977 33.151 60.5977 35.908V56.964C60.5977 59.721 58.3547 61.964 55.5977 61.964Z"
        fill="#2171B5" />
    <path
        d="M74.3477 61.964C71.5907 61.964 69.3477 59.721 69.3477 56.964V5.68701C69.3477 2.93001 71.5907 0.687012 74.3477 0.687012C77.1047 0.687012 79.3477 2.93001 79.3477 5.68701V56.964C79.3477 59.721 77.1047 61.964 74.3477 61.964Z"
        fill="#2171B5" />
    <path
        d="M37.9863 61.9641C35.2293 61.9641 32.9863 59.7211 32.9863 56.9641V50.7981C32.9863 48.0411 35.2293 45.7981 37.9863 45.7981C40.7433 45.7981 42.9863 48.0411 42.9863 50.7981V56.9641C42.9863 59.7211 40.7433 61.9641 37.9863 61.9641Z"
        fill="#2171B5" />
    <path
        d="M5.59766 61.293C2.84066 61.293 0.597656 59.05 0.597656 56.293V6.57503C0.597656 6.40603 0.60665 6.24203 0.62265 6.07903C0.62365 6.06903 0.683648 5.64802 0.695648 5.58802L0.811646 5.12502L0.977661 4.66003L1.18765 4.21503L1.43866 3.79602C1.47166 3.74702 1.69064 3.45602 1.69064 3.45602C1.93664 3.15102 2.17266 2.91503 2.43066 2.70303C2.43966 2.69603 2.57767 2.59503 2.58667 2.58903C2.70967 2.49503 2.76264 2.45202 2.81964 2.41402L3.23267 2.16602L3.68466 1.95203L4.14566 1.78703C4.14566 1.78703 4.55965 1.68002 4.61465 1.67002L5.10965 1.59602C5.24665 1.58302 5.39067 1.57803 5.53467 1.57603C5.54967 1.57603 5.66366 1.57603 5.68466 1.57603C5.79966 1.57803 5.94367 1.58302 6.08667 1.59702L6.58264 1.67102C6.62764 1.68002 7.05167 1.78902 7.05167 1.78902L7.49664 1.94802L7.94266 2.15903L8.36966 2.41402C8.42666 2.45202 8.48067 2.49503 8.53467 2.53703L8.70667 2.66502C8.88967 2.81002 9.01266 2.92003 9.12866 3.03703L29.0396 22.947C29.4306 23.338 29.9416 23.533 30.4536 23.533C30.9656 23.533 31.4766 23.338 31.8676 22.947L51.7797 3.03603C52.7237 2.09203 53.9796 1.57202 55.3156 1.57202C56.6506 1.57202 57.9067 2.09203 58.8517 3.03603C59.7957 3.98003 60.3156 5.23602 60.3156 6.57102C60.3156 7.90702 59.7957 9.16303 58.8517 10.107L33.9907 34.968C33.0467 35.912 31.7907 36.432 30.4557 36.432C29.1207 36.432 27.8647 35.912 26.9187 34.967L14.0077 22.057C13.6257 21.674 13.1137 21.471 12.5927 21.471C12.3347 21.471 12.0747 21.521 11.8277 21.623C11.0797 21.933 10.5927 22.662 10.5927 23.471V56.293C10.5977 59.05 8.35466 61.293 5.59766 61.293Z"
        fill="#2171B5" />
</svg>